<svg width="18" height="19" viewBox="0 0 18 19" fill="none" xmlns="http://www.w3.org/2000/svg">
<g clip-path="url(#clip0_4_4781)">
<path d="M9 10.125C10.3261 10.125 11.5979 9.59822 12.5355 8.66053C13.4732 7.72285 14 6.45108 14 5.125C14 3.79892 13.4732 2.52715 12.5355 1.58947C11.5979 0.651784 10.3261 0.125 9 0.125C7.67392 0.125 6.40215 0.651784 5.46447 1.58947C4.52678 2.52715 4 3.79892 4 5.125C4 6.45108 4.52678 7.72285 5.46447 8.66053C6.40215 9.59822 7.67392 10.125 9 10.125V10.125Z" stroke="black" stroke-width="3" stroke-miterlimit="20"/>
<path d="M1 15.125C1 14.3294 1.31607 13.5663 1.87868 13.0037C2.44129 12.4411 3.20435 12.125 4 12.125H14C14.7956 12.125 15.5587 12.4411 16.1213 13.0037C16.6839 13.5663 17 14.3294 17 15.125C17 15.9206 16.6839 16.6837 16.1213 17.2463C15.5587 17.8089 14.7956 18.125 14 18.125H4C3.20435 18.125 2.44129 17.8089 1.87868 17.2463C1.31607 16.6837 1 15.9206 1 15.125H1Z" stroke="black" stroke-width="3" stroke-miterlimit="20"/>
</g>
<defs>
<clipPath id="clip0_4_4781">
<rect width="16" height="18" fill="white" transform="translate(1 0.125)"/>
</clipPath>
</defs>
</svg>
