<svg width="145" height="33" viewBox="0 0 145 33" fill="none" xmlns="http://www.w3.org/2000/svg">
<g clip-path="url(#clip0_4_4755)">
<path d="M141.199 26.3218V22.2348C139.214 22.355 138.1 22.2348 138.1 20.9442V15.6235H141.199V11.2961H138.1V7.08894L133.581 8.44283V11.2898H131.176V15.6235H133.581V20.9442C133.581 25.1514 135.306 26.9228 141.199 26.3218ZM126.346 17.2463H119.88C120.301 15.7153 121.444 14.8738 123.159 14.8738C124.51 14.8675 125.865 15.5001 126.346 17.2463ZM123.52 26.7362C126.368 26.7362 128.599 25.686 130.074 23.6425L126.466 21.5673C126.088 21.9437 125.637 22.2391 125.141 22.4354C124.645 22.6318 124.113 22.725 123.58 22.7093C121.925 22.7093 120.542 22.1684 119.972 20.6057H130.644C130.767 20.0126 130.827 19.4083 130.824 18.8026C130.824 14.2665 127.577 10.8691 123.188 10.8691C118.44 10.8691 115.19 14.3266 115.19 18.8026C115.19 23.2787 118.39 26.7425 123.52 26.7425V26.7362ZM103.464 26.3155V18.1194C103.464 15.9841 104.607 15.0225 106.262 15.0225C107.705 15.0225 108.876 15.8956 108.876 17.7587V26.3218H113.386V17.0976C113.386 13.0391 110.8 10.8754 107.765 10.8754C105.781 10.8754 104.284 11.5966 103.464 12.7101V11.2961H98.9545V26.3218L103.464 26.3155ZM96.7549 26.3155V11.2961H92.245V26.3218L96.7549 26.3155ZM94.5015 9.96754C95.0377 9.96942 95.5623 9.81207 96.0088 9.51546C96.4553 9.21886 96.8036 8.79636 97.0094 8.30159C97.2153 7.80681 97.2695 7.26206 97.1652 6.73645C97.0608 6.21083 96.8026 5.72805 96.4233 5.34936C96.044 4.97067 95.5606 4.71314 95.0346 4.60944C94.5087 4.50575 93.9637 4.56056 93.4689 4.76693C92.9742 4.9733 92.5519 5.32192 92.2556 5.76855C91.9594 6.21519 91.8026 6.73972 91.8051 7.27558C91.8141 7.98786 92.101 8.66849 92.6047 9.17249C93.1083 9.67649 93.7889 9.96403 94.5015 9.97387V9.96754ZM90.2227 26.3218V22.2348C88.2384 22.355 87.1243 22.2348 87.1243 20.9442V15.6235H90.2227V11.2961H87.1243V7.08894L82.6271 8.44283V11.2898H80.2219V15.6235H82.6271V20.9442C82.6271 25.1514 84.3393 26.9228 90.2227 26.3218ZM71.6199 22.4752C69.5469 22.4752 68.0436 21.0644 68.0436 18.809C68.0436 16.5535 69.5469 15.1427 71.6199 15.1427C73.6928 15.1427 75.1993 16.5567 75.1993 18.809C75.1993 21.0612 73.696 22.4752 71.6199 22.4752ZM63.5338 32.332H68.0436V24.911C69.0342 26.0529 70.509 26.7425 72.5219 26.7425C76.4621 26.7425 79.7092 23.2882 79.7092 18.809C79.7092 14.3297 76.4621 10.8754 72.5219 10.8754C70.509 10.8754 69.0405 11.5682 68.0436 12.7101V11.2961H63.5338M50.6181 22.0513C47.1906 22.0513 44.4847 19.5587 44.4847 15.8007C44.4847 12.0427 47.1811 9.55315 50.6181 9.55315C54.0551 9.55315 56.7515 12.049 56.7515 15.8165C56.7515 19.584 54.0456 22.0545 50.6181 22.0545V22.0513ZM50.6181 26.7393C52.0574 26.7515 53.4846 26.4775 54.8169 25.9331C56.1492 25.3886 57.3598 24.5848 58.3782 23.5683C59.3967 22.5518 60.2027 21.3429 60.7493 20.0121C61.2959 18.6813 61.5722 17.255 61.5621 15.8165C61.5621 12.9154 60.409 10.1331 58.3567 8.08166C56.3043 6.03026 53.5206 4.8778 50.6181 4.8778C47.7156 4.8778 44.9319 6.03026 42.8796 8.08166C40.8272 10.1331 39.6741 12.9154 39.6741 15.8165C39.6632 17.2554 39.9388 18.6822 40.4851 20.0136C41.0314 21.345 41.8373 22.5544 42.8559 23.5713C43.8745 24.5882 45.0854 25.3923 46.4181 25.9368C47.7507 26.4812 49.1785 26.7551 50.6181 26.7425V26.7393Z" fill="white"/>
<path opacity="0.3" d="M20.4357 15.9272C23.6135 13.5661 27.3893 12.1416 31.3354 11.8149C31.3164 11.7422 31.2942 11.6694 31.2721 11.5967C28.5528 11.1783 26.0381 9.90299 24.0946 7.95644C22.1511 6.0099 20.8803 3.49388 20.4674 0.775013L20.2806 0.721237C19.9391 4.66661 18.4985 8.43742 16.1221 11.6061C17.3475 13.2438 18.8 14.6987 20.4357 15.9272Z" fill="#42EA95"/>
<path opacity="0.3" d="M11.6938 16.0063C8.51594 18.3694 4.73858 19.7941 0.791016 20.1186C0.813169 20.1913 0.832158 20.2641 0.854312 20.3368C3.57319 20.755 6.08747 22.0299 8.03092 23.9758C9.97437 25.9217 11.2455 28.437 11.659 31.1553L11.8584 31.2123C12.1987 27.2686 13.6371 23.499 16.0107 20.3305C14.7841 18.6918 13.3306 17.2358 11.6938 16.0063Z" fill="#42EA95"/>
<path d="M16.065 0.148744C14.676 0.148146 13.2928 0.32893 11.9507 0.686505L11.7671 0.740281C11.3601 3.48542 10.0782 6.02618 8.11185 7.98535C6.14546 9.94452 3.5994 11.2176 0.851647 11.6157L0.788351 11.8308C0.0562268 14.5417 0.0562268 17.3982 0.788351 20.1091C4.73592 19.7847 8.51328 18.36 11.6912 15.9969C13.3741 14.7531 14.8667 13.2708 16.1219 11.5967C18.4967 8.43068 19.9372 4.66338 20.2805 0.721301C18.9076 0.341012 17.4896 0.148407 16.065 0.148744Z" fill="url(#paint0_linear_4_4755)"/>
<path d="M31.3347 11.8212C26.3236 12.2436 21.6224 14.4201 18.0594 17.9675C14.4965 21.5148 12.3005 26.2052 11.8584 31.2123C13.2283 31.5909 14.6431 31.7825 16.0644 31.7816C17.4535 31.7828 18.8367 31.602 20.1787 31.2439L20.3718 31.1869C20.7794 28.4439 22.0603 25.9052 24.0247 23.9469C25.9891 21.9886 28.5324 20.7149 31.2778 20.3147C31.2967 20.2419 31.3189 20.1723 31.3379 20.0996C32.0743 17.3892 32.0743 14.5316 31.3379 11.8212H31.3347Z" fill="url(#paint1_linear_4_4755)"/>
</g>
<defs>
<linearGradient id="paint0_linear_4_4755" x1="12.7894" y1="12.6849" x2="5.31768" y2="5.15896" gradientUnits="userSpaceOnUse">
<stop stop-color="#42EA95"/>
<stop offset="0.57" stop-color="#2BDDBA"/>
<stop offset="0.72" stop-color="#25DAC4"/>
<stop offset="1" stop-color="#03C7FD"/>
</linearGradient>
<linearGradient id="paint1_linear_4_4755" x1="18.0615" y1="18.5243" x2="26.5524" y2="25.7153" gradientUnits="userSpaceOnUse">
<stop stop-color="#42EA95"/>
<stop offset="0.68" stop-color="#25DAC4"/>
<stop offset="1" stop-color="#03C7FD"/>
</linearGradient>
<clipPath id="clip0_4_4755">
<rect width="145" height="32.2656" fill="white"/>
</clipPath>
</defs>
</svg>
